<svg xmlns="http://www.w3.org/2000/svg" viewBox="0 0 283 431" width="283" height="431">
	<path id="0" d="M138.74 0v11.602L123.255 27h-79.64L30.909 13.5 44.56 0z"/>
	<path id="1" d="M145.908 0v11.602L161.393 27h79.64l12.707-13.5L240.088 0z"/>
	<path id="2" d="M26.11 18l12.54 13.184-5.688 162.59L19.497 207 6.962 193.774l5.687-162.59z"/>
	<path id="3" d="M61.047 33l56.568 113.507L116.024 192h-7.08L44.572 61.987 45.586 33z"/>
	<path id="4" d="M142.11 18l12.54 13.184-5.688 162.59L135.497 207l-12.535-13.226 5.687-162.59z"/>
	<path id="5" d="M237.586 33l-1.014 28.987L163.103 192h-7.08l1.592-45.493L222.125 33z"/>
	<path id="6" d="M258.11 18l12.54 13.184-5.688 162.59L251.497 207l-12.535-13.226 5.687-162.59z"/>
	<path id="7" d="M117.633 198l12.708 13.5L116.69 225h-79.64l-12.708-13.5L37.994 198z"/>
	<path id="8" d="M233.633 198l12.708 13.5L232.69 225h-79.64l-12.708-13.5 13.653-13.5z"/>
	<path id="9" d="M19.148 217l12.54 13.184L26 392.774 12.536 406 0 392.774l5.688-162.59z"/>
	<path id="10" d="M33.062 391l1.014-28.987L107.545 232h7.08l-1.592 45.493L48.523 391z"/>
	<path id="11" d="M135.148 217l12.54 13.184L142 392.774 128.536 406 116 392.774l5.688-162.59z"/>
	<path id="12" d="M161.704 232l64.372 130.013L225.062 391h-15.461l-56.568-113.507L154.624 232z"/>
	<path id="13" d="M251.148 217l12.54 13.184L258 392.774 244.536 406 232 392.774l5.688-162.59z"/>
	<path id="14" d="M125.74 423v-11.602L110.255 396h-79.64l-12.707 13.5L31.56 423z"/>
	<path id="15" d="M132.908 423v-11.602L148.393 396h79.64l12.707 13.5-13.652 13.5z"/>
	<circle id="16" cx="266.908" cy="415" r="16"/>
</svg>